<svg width="173" height="92" viewBox="0 0 173 92" fill="none" xmlns="http://www.w3.org/2000/svg">
<path d="M16.8359 16.6641C16.7057 16.612 16.5495 16.5208 16.3672 16.3906C16.1849 16.2604 15.9245 16.1432 15.5859 16.0391C15.2474 15.9089 14.8177 15.8047 14.2969 15.7266C13.776 15.6484 13.112 15.6354 12.3047 15.6875V11.7422C13.4505 11.7682 14.6094 11.8984 15.7812 12.1328C16.9792 12.3411 17.9427 12.6797 18.6719 13.1484C18.5156 13.487 18.3333 13.8646 18.125 14.2812C17.9167 14.6719 17.7214 15.0495 17.5391 15.4141C17.3568 15.7526 17.2005 16.0391 17.0703 16.2734C16.9401 16.5078 16.862 16.638 16.8359 16.6641ZM3.35938 19.7891C3.35938 18.6432 3.55469 17.6146 3.94531 16.7031C4.33594 15.7917 4.85677 14.9974 5.50781 14.3203C6.1849 13.6172 6.96615 13.0703 7.85156 12.6797C8.76302 12.263 9.71354 11.9896 10.7031 11.8594V15.9609C9.86979 16.2474 9.17969 16.7552 8.63281 17.4844C8.08594 18.1875 7.8125 18.9036 7.8125 19.6328C7.8125 20.6484 8.08594 21.4688 8.63281 22.0938C9.17969 22.7188 9.86979 23.2656 10.7031 23.7344V28.1875C9.84375 27.7708 8.98438 27.3281 8.125 26.8594C7.26562 26.3646 6.48438 25.7917 5.78125 25.1406C5.07812 24.4896 4.49219 23.7344 4.02344 22.875C3.58073 22.0156 3.35938 20.987 3.35938 19.7891ZM3.98438 35.7266C4.34896 35.9349 4.80469 36.1432 5.35156 36.3516C5.92448 36.5339 6.51042 36.7161 7.10938 36.8984C7.70833 37.0547 8.30729 37.1849 8.90625 37.2891C9.50521 37.3932 10.0651 37.4453 10.5859 37.4453H10.7031V41.1562H10.625C10 41.1562 9.34896 41.1172 8.67188 41.0391C8.02083 40.987 7.35677 40.8828 6.67969 40.7266C6.0026 40.5703 5.35156 40.362 4.72656 40.1016C4.1276 39.8151 3.60677 39.4766 3.16406 39.0859L3.98438 35.7266ZM12.3047 24.5156C13.1641 24.9062 14.0365 25.3229 14.9219 25.7656C15.8333 26.2083 16.6536 26.7552 17.3828 27.4062C18.112 28.0312 18.7109 28.7995 19.1797 29.7109C19.6484 30.6224 19.8828 31.7552 19.8828 33.1094C19.8828 34.0469 19.7005 34.9583 19.3359 35.8438C18.9974 36.7292 18.5026 37.5365 17.8516 38.2656C17.2266 38.9688 16.4453 39.5677 15.5078 40.0625C14.5703 40.5573 13.5026 40.8828 12.3047 41.0391V37.2891C14.4401 36.7682 15.5078 35.349 15.5078 33.0312C15.5078 32.1198 15.2083 31.3646 14.6094 30.7656C14.0104 30.1667 13.2422 29.6068 12.3047 29.0859V24.5156ZM24.8828 12.2109H29.6484V41H24.8828V12.2109ZM41.6797 28.0312H31.25V24.8281H41.6797V28.0312ZM31.25 37.4453H42.8906V41H31.25V37.4453ZM42.8906 12.2109V15.7656H31.25V12.2109H42.8906ZM69.6094 12.2109V15.4141H61.0156V41H56.2891V15.4141H47.6953V12.2109H69.6094Z" fill="white"/>
<path d="M72.6484 53.2109H77.4141V82H72.6484L62.9609 64.9688V55.9844L72.6484 73.0547V53.2109ZM56.5938 82V53.2109H61.3594V82H56.5938ZM84.6797 53.2109H89.4453V82H84.6797V53.2109ZM101.477 69.0312H91.0469V65.8281H101.477V69.0312ZM91.0469 78.4453H102.688V82H91.0469V78.4453ZM102.688 53.2109V56.7656H91.0469V53.2109H102.688ZM108.391 53.2109H113.742L118.43 63.9922V72.9375L114.289 82H108.859L116.164 68.0156L108.391 53.2109ZM130.07 53.2109L122.297 68.0156L129.602 82H124.172L120.031 72.1172V63.2109L124.719 53.2109H130.07ZM156.828 53.2109V56.4141H148.234V82H143.508V56.4141H134.914V53.2109H156.828Z" fill="white"/>
<path d="M80.3011 29.3636H81.3636V37.0682C81.3636 37.8598 81.178 38.5682 80.8068 39.1932C80.4356 39.8144 79.9186 40.3049 79.2557 40.6648C78.5966 41.0208 77.8295 41.1989 76.9545 41.1989C76.0833 41.1989 75.3163 41.0189 74.6534 40.6591C73.9905 40.2992 73.4735 39.8087 73.1023 39.1875C72.7311 38.5663 72.5455 37.8598 72.5455 37.0682V29.3636H73.608V36.9943C73.608 37.6117 73.7462 38.1629 74.0227 38.6477C74.2992 39.1288 74.6875 39.5076 75.1875 39.7841C75.6913 40.0606 76.2803 40.1989 76.9545 40.1989C77.6288 40.1989 78.2178 40.0606 78.7216 39.7841C79.2254 39.5076 79.6136 39.1288 79.8864 38.6477C80.1629 38.1629 80.3011 37.6117 80.3011 36.9943V29.3636ZM84.4517 41V29.3636H88.2074C89.0331 29.3636 89.7225 29.5227 90.2756 29.8409C90.8324 30.1553 91.2509 30.5833 91.5312 31.125C91.8153 31.6667 91.9574 32.2765 91.9574 32.9545C91.9574 33.6326 91.8172 34.2443 91.5369 34.7898C91.2566 35.3314 90.84 35.7614 90.2869 36.0795C89.7339 36.3939 89.0464 36.5511 88.2244 36.5511H85.2699V35.5966H88.196C88.8059 35.5966 89.3116 35.483 89.7131 35.2557C90.1146 35.0246 90.4138 34.7102 90.6108 34.3125C90.8116 33.9148 90.9119 33.4621 90.9119 32.9545C90.9119 32.447 90.8116 31.9943 90.6108 31.5966C90.4138 31.1989 90.1127 30.8864 89.7074 30.6591C89.3059 30.4318 88.7964 30.3182 88.179 30.3182H85.5142V41H84.4517Z" fill="white"/>
<path d="M9.45455 54.3636H10.6818L14.1307 59.8864H14.233L17.6818 54.3636H18.9091L14.7102 60.9602V66H13.6534V60.9602L9.45455 54.3636ZM29.8977 60.1818C29.8977 61.3939 29.6818 62.4489 29.25 63.3466C28.8182 64.2405 28.2235 64.9337 27.4659 65.4261C26.7121 65.9148 25.8447 66.1591 24.8636 66.1591C23.8826 66.1591 23.0133 65.9148 22.2557 65.4261C21.5019 64.9337 20.9091 64.2405 20.4773 63.3466C20.0492 62.4489 19.8352 61.3939 19.8352 60.1818C19.8352 58.9697 20.0492 57.9167 20.4773 57.0227C20.9091 56.125 21.5038 55.4318 22.2614 54.9432C23.0189 54.4508 23.8864 54.2045 24.8636 54.2045C25.8447 54.2045 26.7121 54.4508 27.4659 54.9432C28.2235 55.4318 28.8182 56.125 29.25 57.0227C29.6818 57.9167 29.8977 58.9697 29.8977 60.1818ZM28.8636 60.1818C28.8636 59.1402 28.6894 58.2481 28.3409 57.5057C27.9924 56.7595 27.517 56.1894 26.9148 55.7955C26.3125 55.4015 25.6288 55.2045 24.8636 55.2045C24.1023 55.2045 23.4205 55.4015 22.8182 55.7955C22.2159 56.1894 21.7386 56.7576 21.3864 57.5C21.0379 58.2424 20.8636 59.1364 20.8636 60.1818C20.8636 61.2235 21.0379 62.1155 21.3864 62.858C21.7348 63.6004 22.2102 64.1705 22.8125 64.5682C23.4148 64.9621 24.0985 65.1591 24.8636 65.1591C25.6288 65.1591 26.3125 64.9621 26.9148 64.5682C27.5208 64.1742 27.9981 63.6061 28.3466 62.8636C28.6951 62.1174 28.8674 61.2235 28.8636 60.1818ZM40.223 54.3636H41.2855V62.0682C41.2855 62.8598 41.0999 63.5682 40.7287 64.1932C40.3575 64.8144 39.8404 65.3049 39.1776 65.6648C38.5185 66.0208 37.7514 66.1989 36.8764 66.1989C36.0052 66.1989 35.2382 66.0189 34.5753 65.6591C33.9124 65.2992 33.3954 64.8087 33.0241 64.1875C32.6529 63.5663 32.4673 62.8598 32.4673 62.0682V54.3636H33.5298V61.9943C33.5298 62.6117 33.6681 63.1629 33.9446 63.6477C34.2211 64.1288 34.6094 64.5076 35.1094 64.7841C35.6132 65.0606 36.2022 65.1989 36.8764 65.1989C37.5507 65.1989 38.1397 65.0606 38.6435 64.7841C39.1473 64.5076 39.5355 64.1288 39.8082 63.6477C40.0848 63.1629 40.223 62.6117 40.223 61.9943V54.3636ZM44.3736 66V54.3636H48.1293C48.955 54.3636 49.6444 54.5133 50.1974 54.8125C50.7543 55.108 51.1728 55.5189 51.4531 56.0455C51.7372 56.5682 51.8793 57.1686 51.8793 57.8466C51.8793 58.5246 51.7372 59.1231 51.4531 59.642C51.1728 60.161 50.7562 60.5663 50.2031 60.858C49.6501 61.1496 48.9645 61.2955 48.1463 61.2955H44.9474V60.3239H48.1179C48.724 60.3239 49.2277 60.2235 49.6293 60.0227C50.0346 59.822 50.3357 59.536 50.5327 59.1648C50.7334 58.7936 50.8338 58.3542 50.8338 57.8466C50.8338 57.339 50.7334 56.8958 50.5327 56.517C50.3319 56.1345 50.0289 55.839 49.6236 55.6307C49.2221 55.4223 48.7145 55.3182 48.1009 55.3182H45.4361V66H44.3736ZM49.5043 60.75L52.3679 66H51.1406L48.3054 60.75H49.5043Z" fill="white"/>
<line x1="72" y1="46.5" x2="157" y2="46.5" stroke="white"/>
<line x1="1" y1="46.5" x2="61" y2="46.5" stroke="white"/>
<line x1="72" y1="26.5" x2="92" y2="26.5" stroke="white"/>
<line x1="13" y1="68.5" x2="52.5" y2="68.5" stroke="white"/>
</svg>
